#!OML:ASF F:\VICON\USERDATA\INSTALL\rory3\rory3.ASF
:FULLY-SPECIFIED
:DEGREES
37
root 0.24101073012359214 17.81184895675048 22.93949088729076 -3.6642624712062686 -4.362191043928064 -7.52772777191915
lfemur -20.479448497026418 3.04562939695556 -8.327959457188852
ltibia 59.8072040893689
lfoot -6.31353068718741 0.5644067181036174
ltoes -7.66046584714417
rfemur 0.9846556737903889 7.016514392231543 33.76059920295934
rtibia 25.173506484937235
rfoot -18.78145119640643 -9.645339441951467
rtoes 4.020872056863936
lowerback 10.47167366710432 1.0939167111580363 5.957731319663269
upperback 0.33279736173246655 2.6502836605264974 2.5429514252322223
thorax -5.622504924819733 1.2080378707065327 -0.8068575051740466
lowerneck -16.7371808961828 -2.873404783063488 -1.1631366114662274
upperneck 21.654622372023635 -3.6579213041531826 0.2480158658000694
head 9.641930443848558 -1.8249704355680123 -0.09404564846991952
lclavicle 5.315607464915515e-16 -7.171851482862216e-16
lhumerus -30.453563032672776 3.5078712660945115 81.26238538068463
lradius 19.297640911185205
lwrist 8.866874596279109
lhand -28.48927341558548 17.92798897684851
lfingers nan
lthumb -1.5947273554677315 48.24876281960572
rclavicle 4.22401196457816e-16 -7.989894393253939e-16
rhumerus -24.586309451305645 -19.03192375081067 -76.21383139522976
rradius 28.70114726612443
rwrist 1.2336782350907
rhand -17.799329168109125 21.789695110736684
rfingers nan
rthumb 8.611937491226321 -7.644318691074166
38
root 0.22124751243652113 17.79316303537818 22.916838705685237 -3.530507529899497 -4.2108892311731125 -9.126527945848716
lfemur -25.005112242519964 3.127117866226448 -7.833353025930803
ltibia 56.22430246011865
lfoot -6.381670785203552 1.1308498078320377
ltoes -7.894151453410323
rfemur 1.599063232934764 7.268286170151075 34.98261588146486
rtibia 26.81346335457291
rfoot -15.057681190873502 -8.519743440665348
rtoes 3.2967693000866305
lowerback 10.675895580620937 1.4631436084226166 7.201725264429667
upperback 0.33424316710846214 3.2972809745930545 2.4137159522605907
thorax -5.55299652459272 1.460523531573371 -1.474827101942998
lowerneck -16.657733726211166 -3.001185285193312 -1.150877918597496
upperneck 21.42240353307164 -3.866298086716774 0.3824957924436022
head 9.579802587808626 -1.8967467611489195 -0.1032890566978263
lclavicle 5.582009263135985e-16 -7.025225490448667e-16
lhumerus -32.29090663872468 4.511871914072608 81.61107386126541
lradius 19.93054642942501
lwrist 9.037868040675743
lhand -28.436473381946772 17.758345426984025
lfingers nan
lthumb -1.5311242637521998 47.99404273158084
rclavicle 4.373254438246488e-16 -7.996972552411274e-16
rhumerus -23.418053116373905 -17.30873406600601 -76.02151680719271
rradius 29.641883542621144
rwrist 1.7228200130052729
rhand -17.840985201434837 21.79269647731858
rfingers nan
rthumb 8.629391414819796 -7.566509298840114
39
root 0.24109638251068266 17.79312019281312 23.905606975046965 -3.4986779267831007 -3.8127193918266187 -9.594668166284878
lfemur -27.77440625963088 2.6866440600543218 -8.808232658259708
ltibia 51.19766450268101
lfoot -6.206494103307471 2.1003765824279563
ltoes -8.237237467298913
rfemur 2.104634206323114 7.099686248546469 35.169606027155055
rtibia 28.87871949990541
rfoot -10.504992003523409 -7.720175072741943
rtoes 3.207791116568746
lowerback 10.71713284438353 1.7143962313173222 7.753143911716881
upperback 0.31624710632847175 3.6076538285511353 2.256631190749557
thorax -5.3823631556264795 1.5658405553950077 -1.9511102370781632
lowerneck -16.50206807044235 -3.1132534960876237 -1.1894240512948548
upperneck 21.393697881420284 -4.049789537904806 0.5051229037834882
head 9.60296195634958 -1.9552225313592029 -0.11098819188324559
lclavicle 5.701530225615785e-16 -6.955604352618227e-16
lhumerus -34.02638381744123 5.18518463049668 81.81056609969932
lradius 20.882649664272126
lwrist 9.01359597192059
lhand -28.504966869898606 18.682149075375413
lfingers nan
lthumb -1.55335627465899 48.83734141259421
rclavicle 4.524630258853065e-16 -7.949358135673486e-16
rhumerus -22.693213334003474 -15.921831991948032 -75.67133247511538
rradius 30.67386860803742
rwrist 2.3817301202219534
rhand -17.809182495537257 22.007087000659407
rfingers nan
rthumb 8.628422865184513 -7.445791078379661
40
root 0.2821842000543198 17.811474873432033 25.041089325742767 -3.41382872787482 -3.1516823259632316 -9.538719123390218
lfemur -29.112207756548823 1.798561456559735 -10.266128624143038
ltibia 45.219800047012164
lfoot -6.525996163468597 1.6492258727594082
ltoes -9.21740802611393
rfemur 3.07698257356874 6.69569281167363 34.92167509145743
rtibia 30.77046888279417
rfoot -6.233499464506027 -7.750825606139142
rtoes 4.271423262921637
lowerback 10.622957579959438 1.899835660263207 8.139880162421571
upperback 0.26262526457017565 3.802028099857181 2.096487844075318
thorax -5.149436271941101 1.6380086062760786 -2.308925804289496
lowerneck -16.335182399130442 -3.2123179148383345 -1.3110658160073072
upperneck 21.487222309698755 -4.198278534998808 0.7137665208702555
head 9.641566528890143 -2.0142847509840838 -0.07868868845291603
lclavicle 5.758851916265233e-16 -6.934913731414685e-16
lhumerus -35.40823058404304 5.797618964044851 81.80999388344175
lradius 21.991218802346754
lwrist 8.980203566348225
lhand -28.540130887316625 19.35998567107748
lfingers nan
lthumb -1.717550620396976 49.219658179992386
rclavicle 4.422177930213573e-16 -8.067184246207482e-16
rhumerus -22.419278240507225 -14.883453524539798 -75.38696680458507
rradius 31.647604186590303
rwrist 2.354173863215837
rhand -17.745347921648854 22.354076499839557
rfingers nan
rthumb 8.6254417214805 -7.114003769860745
41
root 0.3579133606363951 17.846460841772608 26.323184434638115 -3.3444655247069344 -2.281950805820262 -8.832982713291017
lfemur -29.064658359478873 0.7187773096249008 -11.99582224422483
ltibia 39.1309599858056
lfoot -6.6696415036947005 2.1710911386584355
ltoes -9.07938577103191
rfemur 4.217680419874318 6.129575310684574 34.140828907082394
rtibia 32.66771710967637
rfoot -2.8448306419056326 -8.444643414082163
rtoes 6.4217325904685865
lowerback 10.406415359437217 1.9975253154481534 8.13849090829683
upperback 0.1418665080251361 3.965787331932124 1.8830483967799474
thorax -5.015256986539743 1.6932534492775155 -2.687771355860567
lowerneck -16.18195935759016 -3.2789966227638097 -1.44248071371758
upperneck 21.619359953415607 -4.3091347561044575 0.8412432729985009
head 9.67299884369467 -2.058373170664079 -0.0627297160452295
lclavicle 5.840467448332551e-16 -6.888707975101792e-16
lhumerus -36.36968108938623 6.56478728528213 81.6573324825522
lradius 23.050999787889698
lwrist 9.041596407460453
lhand -28.577363127974568 19.833901739262387
lfingers nan
lthumb -1.8520842365688845 49.600783527448996
rclavicle 4.451044638105965e-16 -8.077432011521987e-16
rhumerus -22.444987921786975 -13.97353709030273 -75.33295028338823
rradius 32.36190177148134
rwrist 2.7883913034884973
rhand -17.75893361956491 22.195934149459767
rfingers nan
rthumb 8.702857019065917 -7.080972498669964
42
root 0.43619775071560374 17.884848862679355 27.196270215682496 -3.31617175195717 -1.4104860256531184 -8.166014176392647
lfemur -28.29431892105131 -0.46801696296668704 -13.596517947588545
ltibia 33.36542227197083
lfoot -6.806061172328329 1.7091617976106095
ltoes -8.964714734459498
rfemur 5.153031809160218 5.620958169569477 33.34439816960339
rtibia 34.70353064534723
rfoot -0.6602093645432792 -9.348750701042013
rtoes 8.680547756519703
lowerback 10.130700377386905 2.0454693604537293 8.058993186385374
upperback 0.05393608574149383 3.9872446714432366 1.7329730916107016
thorax -4.878869344003739 1.7113611668036486 -2.846226225860036
lowerneck -16.08333772434865 -3.3231654844832024 -1.5435614764978935
upperneck 21.77169051879226 -4.376199566556838 0.9429408190281492
head 9.705844339884386 -2.0821835324161992 -0.037542651278207426
lclavicle 5.908182640802022e-16 -6.850194886513876e-16
lhumerus -36.875973611263525 7.367521358688013 81.42599432452218
lradius 23.879962453191034
lwrist 9.004122203958495
lhand -28.603164521877993 20.087191234659965
lfingers nan
lthumb -1.9627148606738503 49.85478118985957
rclavicle 4.469106219932028e-16 -8.091561900079326e-16
rhumerus -22.604456743852175 -13.034031771538352 -75.56268407790394
rradius 32.747525366391585
rwrist 3.001358114458789
rhand -17.68438402976642 22.147277739116543
rfingers nan
rthumb 8.748647325878283 -7.210650788960823
